# Tiled2Unity generated file. Do not modify by hand.
# Wavefront file for 'firstMap_mesh_0005.obj'

# Vertices (Count = 360)
v -38 -28 0
v -39 -28 0
v -39 -27 0
v -38 -27 0
v -39 -28 0
v -40 -28 0
v -40 -27 0
v -39 -27 0
v -40 -28 0
v -41 -28 0
v -41 -27 0
v -40 -27 0
v -41 -28 0
v -42 -28 0
v -42 -27 0
v -41 -27 0
v -42 -28 0
v -43 -28 0
v -43 -27 0
v -42 -27 0
v -43 -28 0
v -44 -28 0
v -44 -27 0
v -43 -27 0
v -44 -28 0
v -45 -28 0
v -45 -27 0
v -44 -27 0
v -45 -28 0
v -46 -28 0
v -46 -27 0
v -45 -27 0
v -46 -28 0
v -47 -28 0
v -47 -27 0
v -46 -27 0
v -38 -29 0
v -39 -29 0
v -39 -28 0
v -38 -28 0
v -46 -29 0
v -47 -29 0
v -47 -28 0
v -46 -28 0
v -38 -30 0
v -39 -30 0
v -39 -29 0
v -38 -29 0
v -46 -30 0
v -47 -30 0
v -47 -29 0
v -46 -29 0
v -38 -31 0
v -39 -31 0
v -39 -30 0
v -38 -30 0
v -46 -31 0
v -47 -31 0
v -47 -30 0
v -46 -30 0
v -38 -32 0
v -39 -32 0
v -39 -31 0
v -38 -31 0
v -46 -32 0
v -47 -32 0
v -47 -31 0
v -46 -31 0
v -38 -33 0
v -39 -33 0
v -39 -32 0
v -38 -32 0
v -46 -33 0
v -47 -33 0
v -47 -32 0
v -46 -32 0
v -38 -34 0
v -39 -34 0
v -39 -33 0
v -38 -33 0
v -46 -34 0
v -47 -34 0
v -47 -33 0
v -46 -33 0
v -38 -35 0
v -39 -35 0
v -39 -34 0
v -38 -34 0
v -46 -35 0
v -47 -35 0
v -47 -34 0
v -46 -34 0
v -38 -36 0
v -39 -36 0
v -39 -35 0
v -38 -35 0
v -46 -36 0
v -47 -36 0
v -47 -35 0
v -46 -35 0
v -38 -37 0
v -39 -37 0
v -39 -36 0
v -38 -36 0
v -46 -37 0
v -47 -37 0
v -47 -36 0
v -46 -36 0
v -38 -38 0
v -39 -38 0
v -39 -37 0
v -38 -37 0
v -46 -38 0
v -47 -38 0
v -47 -37 0
v -46 -37 0
v -3 -39 0
v -4 -39 0
v -4 -38 0
v -3 -38 0
v -4 -39 0
v -5 -39 0
v -5 -38 0
v -4 -38 0
v -5 -39 0
v -6 -39 0
v -6 -38 0
v -5 -38 0
v -6 -39 0
v -7 -39 0
v -7 -38 0
v -6 -38 0
v -7 -39 0
v -8 -39 0
v -8 -38 0
v -7 -38 0
v -8 -39 0
v -9 -39 0
v -9 -38 0
v -8 -38 0
v -9 -39 0
v -10 -39 0
v -10 -38 0
v -9 -38 0
v -10 -39 0
v -11 -39 0
v -11 -38 0
v -10 -38 0
v -11 -39 0
v -12 -39 0
v -12 -38 0
v -11 -38 0
v -12 -39 0
v -13 -39 0
v -13 -38 0
v -12 -38 0
v -13 -39 0
v -14 -39 0
v -14 -38 0
v -13 -38 0
v -14 -39 0
v -15 -39 0
v -15 -38 0
v -14 -38 0
v -15 -39 0
v -16 -39 0
v -16 -38 0
v -15 -38 0
v -16 -39 0
v -17 -39 0
v -17 -38 0
v -16 -38 0
v -17 -39 0
v -18 -39 0
v -18 -38 0
v -17 -38 0
v -18 -39 0
v -19 -39 0
v -19 -38 0
v -18 -38 0
v -38 -39 0
v -39 -39 0
v -39 -38 0
v -38 -38 0
v -46 -39 0
v -47 -39 0
v -47 -38 0
v -46 -38 0
v -3 -40 0
v -4 -40 0
v -4 -39 0
v -3 -39 0
v -18 -40 0
v -19 -40 0
v -19 -39 0
v -18 -39 0
v -38 -40 0
v -39 -40 0
v -39 -39 0
v -38 -39 0
v -46 -40 0
v -47 -40 0
v -47 -39 0
v -46 -39 0
v -3 -41 0
v -4 -41 0
v -4 -40 0
v -3 -40 0
v -18 -41 0
v -19 -41 0
v -19 -40 0
v -18 -40 0
v -38 -41 0
v -39 -41 0
v -39 -40 0
v -38 -40 0
v -46 -41 0
v -47 -41 0
v -47 -40 0
v -46 -40 0
v -3 -42 0
v -4 -42 0
v -4 -41 0
v -3 -41 0
v -18 -42 0
v -19 -42 0
v -19 -41 0
v -18 -41 0
v -38 -42 0
v -39 -42 0
v -39 -41 0
v -38 -41 0
v -46 -42 0
v -47 -42 0
v -47 -41 0
v -46 -41 0
v -3 -43 0
v -4 -43 0
v -4 -42 0
v -3 -42 0
v -38 -43 0
v -39 -43 0
v -39 -42 0
v -38 -42 0
v -39 -43 0
v -40 -43 0
v -40 -42 0
v -39 -42 0
v -40 -43 0
v -41 -43 0
v -41 -42 0
v -40 -42 0
v -41 -43 0
v -42 -43 0
v -42 -42 0
v -41 -42 0
v -43 -43 0
v -44 -43 0
v -44 -42 0
v -43 -42 0
v -44 -43 0
v -45 -43 0
v -45 -42 0
v -44 -42 0
v -45 -43 0
v -46 -43 0
v -46 -42 0
v -45 -42 0
v -46 -43 0
v -47 -43 0
v -47 -42 0
v -46 -42 0
v -3 -44 0
v -4 -44 0
v -4 -43 0
v -3 -43 0
v -18 -44 0
v -19 -44 0
v -19 -43 0
v -18 -43 0
v -3 -45 0
v -4 -45 0
v -4 -44 0
v -3 -44 0
v -18 -45 0
v -19 -45 0
v -19 -44 0
v -18 -44 0
v -3 -46 0
v -4 -46 0
v -4 -45 0
v -3 -45 0
v -18 -46 0
v -19 -46 0
v -19 -45 0
v -18 -45 0
v -3 -47 0
v -4 -47 0
v -4 -46 0
v -3 -46 0
v -4 -47 0
v -5 -47 0
v -5 -46 0
v -4 -46 0
v -5 -47 0
v -6 -47 0
v -6 -46 0
v -5 -46 0
v -6 -47 0
v -7 -47 0
v -7 -46 0
v -6 -46 0
v -7 -47 0
v -8 -47 0
v -8 -46 0
v -7 -46 0
v -8 -47 0
v -9 -47 0
v -9 -46 0
v -8 -46 0
v -9 -47 0
v -10 -47 0
v -10 -46 0
v -9 -46 0
v -10 -47 0
v -11 -47 0
v -11 -46 0
v -10 -46 0
v -11 -47 0
v -12 -47 0
v -12 -46 0
v -11 -46 0
v -12 -47 0
v -13 -47 0
v -13 -46 0
v -12 -46 0
v -13 -47 0
v -14 -47 0
v -14 -46 0
v -13 -46 0
v -14 -47 0
v -15 -47 0
v -15 -46 0
v -14 -46 0
v -15 -47 0
v -16 -47 0
v -16 -46 0
v -15 -46 0
v -16 -47 0
v -17 -47 0
v -17 -46 0
v -16 -46 0
v -17 -47 0
v -18 -47 0
v -18 -46 0
v -17 -46 0
v -18 -47 0
v -19 -47 0
v -19 -46 0
v -18 -46 0

# Texture cooridinates (Count = 16)
vt 0.65625 0.1875
vt 0.65625 0.15625
vt 0.625 0.15625
vt 0.625 0.1875
vt 0.65625 0.125
vt 0.625 0.125
vt 0.65625 0.09375
vt 0.625 0.09375
vt 0.6875 0.1875
vt 0.6875 0.15625
vt 0.6875 0.125
vt 0.6875 0.09375
vt 0.71875 0.15625
vt 0.71875 0.1875
vt 0.71875 0.125
vt 0.71875 0.09375

# Normal
vn 0 0 -1

# Mesh description
g firstMap_mesh_0005

# Faces
f 1/1/1 2/2/1 3/3/1 4/4/1
f 5/2/1 6/5/1 7/6/1 8/3/1
f 9/2/1 10/5/1 11/6/1 12/3/1
f 13/2/1 14/5/1 15/6/1 16/3/1
f 17/2/1 18/5/1 19/6/1 20/3/1
f 21/2/1 22/5/1 23/6/1 24/3/1
f 25/2/1 26/5/1 27/6/1 28/3/1
f 29/2/1 30/5/1 31/6/1 32/3/1
f 33/5/1 34/7/1 35/8/1 36/6/1
f 37/9/1 38/10/1 39/2/1 40/1/1
f 41/11/1 42/12/1 43/7/1 44/5/1
f 45/9/1 46/10/1 47/2/1 48/1/1
f 49/11/1 50/12/1 51/7/1 52/5/1
f 53/9/1 54/10/1 55/2/1 56/1/1
f 57/11/1 58/12/1 59/7/1 60/5/1
f 61/9/1 62/10/1 63/2/1 64/1/1
f 65/11/1 66/12/1 67/7/1 68/5/1
f 69/9/1 70/10/1 71/2/1 72/1/1
f 73/11/1 74/12/1 75/7/1 76/5/1
f 77/9/1 78/10/1 79/2/1 80/1/1
f 81/11/1 82/12/1 83/7/1 84/5/1
f 85/9/1 86/10/1 87/2/1 88/1/1
f 89/11/1 90/12/1 91/7/1 92/5/1
f 93/9/1 94/10/1 95/2/1 96/1/1
f 97/11/1 98/12/1 99/7/1 100/5/1
f 101/9/1 102/10/1 103/2/1 104/1/1
f 105/11/1 106/12/1 107/7/1 108/5/1
f 109/9/1 110/10/1 111/2/1 112/1/1
f 113/11/1 114/12/1 115/7/1 116/5/1
f 117/3/1 118/2/1 119/1/1 120/4/1
f 121/2/1 122/10/1 123/9/1 124/1/1
f 125/2/1 126/10/1 127/9/1 128/1/1
f 129/2/1 130/10/1 131/9/1 132/1/1
f 133/2/1 134/10/1 135/9/1 136/1/1
f 137/2/1 138/10/1 139/9/1 140/1/1
f 141/2/1 142/10/1 143/9/1 144/1/1
f 145/2/1 146/10/1 147/9/1 148/1/1
f 149/2/1 150/10/1 151/9/1 152/1/1
f 153/2/1 154/10/1 155/9/1 156/1/1
f 157/2/1 158/10/1 159/9/1 160/1/1
f 161/2/1 162/10/1 163/9/1 164/1/1
f 165/2/1 166/10/1 167/9/1 168/1/1
f 169/2/1 170/10/1 171/9/1 172/1/1
f 173/2/1 174/10/1 175/9/1 176/1/1
f 177/10/1 178/13/1 179/14/1 180/9/1
f 181/9/1 182/10/1 183/2/1 184/1/1
f 185/11/1 186/12/1 187/7/1 188/5/1
f 189/6/1 190/5/1 191/2/1 192/3/1
f 193/11/1 194/15/1 195/13/1 196/10/1
f 197/9/1 198/10/1 199/2/1 200/1/1
f 201/11/1 202/12/1 203/7/1 204/5/1
f 205/6/1 206/5/1 207/2/1 208/3/1
f 209/11/1 210/15/1 211/13/1 212/10/1
f 213/9/1 214/10/1 215/2/1 216/1/1
f 217/11/1 218/12/1 219/7/1 220/5/1
f 221/6/1 222/5/1 223/2/1 224/3/1
f 225/11/1 226/15/1 227/13/1 228/10/1
f 229/9/1 230/10/1 231/2/1 232/1/1
f 233/11/1 234/12/1 235/7/1 236/5/1
f 237/6/1 238/5/1 239/2/1 240/3/1
f 241/14/1 242/13/1 243/10/1 244/9/1
f 245/13/1 246/15/1 247/11/1 248/10/1
f 249/13/1 250/15/1 251/11/1 252/10/1
f 253/13/1 254/15/1 255/11/1 256/10/1
f 257/13/1 258/15/1 259/11/1 260/10/1
f 261/13/1 262/15/1 263/11/1 264/10/1
f 265/13/1 266/15/1 267/11/1 268/10/1
f 269/15/1 270/16/1 271/12/1 272/11/1
f 273/6/1 274/5/1 275/2/1 276/3/1
f 277/11/1 278/15/1 279/13/1 280/10/1
f 281/6/1 282/5/1 283/2/1 284/3/1
f 285/11/1 286/15/1 287/13/1 288/10/1
f 289/6/1 290/5/1 291/2/1 292/3/1
f 293/11/1 294/15/1 295/13/1 296/10/1
f 297/8/1 298/7/1 299/5/1 300/6/1
f 301/7/1 302/12/1 303/11/1 304/5/1
f 305/7/1 306/12/1 307/11/1 308/5/1
f 309/7/1 310/12/1 311/11/1 312/5/1
f 313/7/1 314/12/1 315/11/1 316/5/1
f 317/7/1 318/12/1 319/11/1 320/5/1
f 321/7/1 322/12/1 323/11/1 324/5/1
f 325/7/1 326/12/1 327/11/1 328/5/1
f 329/7/1 330/12/1 331/11/1 332/5/1
f 333/7/1 334/12/1 335/11/1 336/5/1
f 337/7/1 338/12/1 339/11/1 340/5/1
f 341/7/1 342/12/1 343/11/1 344/5/1
f 345/7/1 346/12/1 347/11/1 348/5/1
f 349/7/1 350/12/1 351/11/1 352/5/1
f 353/7/1 354/12/1 355/11/1 356/5/1
f 357/12/1 358/16/1 359/15/1 360/11/1

